<svg width="197" height="175" viewBox="0 0 197 175" fill="none" xmlns="http://www.w3.org/2000/svg">
<g filter="url(#filter0_d)">
<path d="M63.0976 9.18012C65.3682 8.17098 67.9136 7.96033 70.3192 8.58246L79.8477 11.0467L170.732 34.5509C176.613 36.072 180.148 42.0731 178.627 47.9547L155.092 138.961C153.57 144.842 147.569 148.377 141.688 146.856L22.6055 116.059C16.7239 114.538 13.189 108.537 14.7101 102.655L34.4105 26.4798C35.2505 23.2318 37.5269 20.5446 40.5927 19.1821L51.1721 14.4802L63.0976 9.18012Z" fill="url(#paint0_diamond)"/>
<path d="M89.4959 41.1376C89.3931 40.9436 89.255 40.775 89.0894 40.6416C88.9238 40.5081 88.734 40.4124 88.5309 40.3599C88.3279 40.3073 88.1155 40.2991 87.906 40.3355C87.6964 40.372 87.4939 40.4524 87.31 40.5723L76.8252 47.3353L74.7088 43.4776C74.606 43.2836 74.4679 43.1151 74.3023 42.9816C74.1367 42.8481 73.947 42.7524 73.7439 42.6999C73.5408 42.6474 73.3284 42.6391 73.1189 42.6756C72.9094 42.712 72.7068 42.7925 72.5229 42.9123L69.9339 44.5953C69.7496 44.7145 69.5874 44.8708 69.4566 45.0552C69.3258 45.2397 69.229 45.4487 69.1717 45.6702C69.1144 45.8918 69.0978 46.1215 69.1227 46.3463C69.1477 46.571 69.2138 46.7863 69.3172 46.9799L73.7169 55.2113C73.9404 55.6071 74.3 55.8885 74.7215 55.9975C75.1429 56.1065 75.5939 56.0347 75.9812 55.7969L78.5525 54.1243L90.4549 46.399C90.8258 46.158 91.0998 45.7728 91.2175 45.3269C91.3351 44.8811 91.2868 44.4105 91.0832 44.0174L89.4959 41.1376ZM83.721 63.4674C83.6182 63.2734 83.4801 63.1049 83.3145 62.9714C83.1489 62.8379 82.9591 62.7422 82.7561 62.6897C82.553 62.6372 82.3406 62.6289 82.1311 62.6653C81.9215 62.7018 81.719 62.7823 81.5351 62.9021L71.0354 69.7226L68.9183 65.8678C68.8155 65.6738 68.6774 65.5052 68.5118 65.3717C68.3462 65.2383 68.1565 65.1425 67.9534 65.09C67.7503 65.0375 67.5379 65.0292 67.3284 65.0657C67.1189 65.1021 66.9163 65.1826 66.7324 65.3025L64.1445 66.9812C63.9602 67.1004 63.798 67.2567 63.6672 67.4412C63.5364 67.6256 63.4396 67.8346 63.3823 68.0562C63.325 68.2777 63.3084 68.5074 63.3333 68.7322C63.3583 68.9569 63.4244 69.1723 63.5278 69.3658L67.9084 77.6073C68.1318 78.0029 68.4912 78.2842 68.9124 78.3931C69.3336 78.5021 69.7844 78.4303 70.1715 78.1926L72.7594 76.5138L84.6629 68.7843C85.0322 68.5452 85.305 68.1622 85.422 67.7188C85.539 67.2753 85.4907 66.8073 85.2876 66.4167L83.721 63.4674ZM67.7118 85.2636C64.3056 84.3827 60.684 86.6636 59.7227 90.3808C58.7613 94.098 60.8256 97.8494 64.2292 98.7296C65.8661 99.153 67.6194 98.8496 69.1034 97.8862C70.5874 96.9229 71.6806 95.3785 72.1424 93.5928C72.6042 91.8071 72.3969 89.9263 71.566 88.3643C70.7351 86.8023 69.3487 85.6869 67.7118 85.2636ZM122.679 101.873L85.6472 92.2964C85.1015 92.1553 84.5171 92.2565 84.0224 92.5776C83.5278 92.8987 83.1634 93.4135 83.0094 94.0087L81.8486 98.4974C81.6946 99.0926 81.7638 99.7196 82.0407 100.24C82.3177 100.761 82.7798 101.133 83.3255 101.274L120.357 110.851C120.903 110.992 121.487 110.891 121.982 110.57C122.477 110.249 122.841 109.734 122.995 109.139L124.156 104.65C124.31 104.055 124.241 103.428 123.964 102.907C123.687 102.386 123.224 102.015 122.679 101.873ZM134.287 56.9866L97.2557 47.4096C96.7101 47.2684 96.1256 47.3696 95.631 47.6907C95.1363 48.0118 94.7719 48.5266 94.618 49.1218L93.4571 53.6105C93.3032 54.2058 93.3723 54.8327 93.6493 55.3534C93.9262 55.874 94.3884 56.2458 94.934 56.3869L131.966 65.964C132.511 66.1051 133.096 66.004 133.59 65.6828C134.085 65.3617 134.449 64.8469 134.603 64.2517L135.764 59.763C135.918 59.1678 135.849 58.5409 135.572 58.0202C135.295 57.4995 134.833 57.1277 134.287 56.9866V56.9866ZM128.483 79.43L91.4514 69.853C90.9058 69.7119 90.3214 69.813 89.8267 70.1341C89.332 70.4552 88.9676 70.97 88.8137 71.5653L87.6528 76.054C87.4989 76.6492 87.568 77.2761 87.845 77.7968C88.122 78.3175 88.5841 78.6893 89.1297 78.8304L126.161 88.4074C126.707 88.5485 127.291 88.4474 127.786 88.1263C128.281 87.8052 128.645 87.2904 128.799 86.6951L129.96 82.2064C130.114 81.6112 130.045 80.9843 129.768 80.4636C129.491 79.9429 129.029 79.5712 128.483 79.43Z" fill="#464646"/>
</g>
<defs>
<filter id="filter0_d" x="0.955917" y="0" width="195.425" height="174.61" filterUnits="userSpaceOnUse" color-interpolation-filters="sRGB">
<feFlood flood-opacity="0" result="BackgroundImageFix"/>
<feColorMatrix in="SourceAlpha" type="matrix" values="0 0 0 0 0 0 0 0 0 0 0 0 0 0 0 0 0 0 127 0"/>
<feOffset dx="2" dy="12"/>
<feGaussianBlur stdDeviation="6.5"/>
<feColorMatrix type="matrix" values="0 0 0 0 0 0 0 0 0 0 0 0 0 0 0 0 0 0 0.2 0"/>
<feBlend mode="normal" in2="BackgroundImageFix" result="effect1_dropShadow"/>
<feBlend mode="normal" in="SourceGraphic" in2="effect1_dropShadow" result="shape"/>
</filter>
<radialGradient id="paint0_diamond" cx="0" cy="0" r="1" gradientUnits="userSpaceOnUse" gradientTransform="translate(193 37) rotate(114.039) scale(152.201 75.6547)">
<stop offset="0.448095" stop-color="#FFAA20"/>
<stop offset="0.458325" stop-color="#E8BB1E"/>
</radialGradient>
</defs>
</svg>
